<?xml version="1.0" encoding="UTF-8"?>
<svg width="700pt" height="700pt" version="1.1" fill="#8c93a8" viewBox="0 0 700 700" xmlns="http://www.w3.org/2000/svg" xmlns:xlink="http://www.w3.org/1999/xlink">
 <defs>
  <symbol id="v" overflow="visible">
   <path d="m0.28125-0.015625c-0.023438 0.011719-0.042969 0.015625-0.0625 0.015625h-0.046875c-0.042969 0-0.078125-0.0078125-0.10938-0.03125-0.03125-0.03125-0.046875-0.066406-0.046875-0.10938 0-0.050781 0.015625-0.09375 0.046875-0.125s0.066406-0.046875 0.10938-0.046875c0.019531 0 0.035156 0.007812 0.046875 0.015625 0.019531 0 0.039062 0.007813 0.0625 0.015625v0.0625c-0.023438-0.007812-0.039062-0.015625-0.046875-0.015625-0.011719-0.007813-0.027344-0.015625-0.046875-0.015625-0.03125 0-0.054688 0.011719-0.0625 0.03125-0.011719 0.011719-0.015625 0.039062-0.015625 0.078125 0 0.023437 0.003906 0.042969 0.015625 0.0625 0.007812 0.023438 0.03125 0.03125 0.0625 0.03125h0.046875c0.007813-0.0078125 0.023437-0.019531 0.046875-0.03125z"/>
  </symbol>
  <symbol id="c" overflow="visible">
   <path d="m0.20312-0.15625c-0.011719-0.007812-0.023437-0.015625-0.03125-0.015625-0.023437 0-0.039063 0.007813-0.046875 0.015625-0.011719 0.011719-0.015625 0.027344-0.015625 0.046875v0.10938h-0.078125v-0.21875h0.078125v0.03125c0.007813-0.019531 0.019531-0.03125 0.03125-0.03125 0.007813-0.007812 0.019531-0.015625 0.03125-0.015625h0.015625 0.015625z"/>
  </symbol>
  <symbol id="a" overflow="visible">
   <path d="m0.25-0.10938v0.015625h-0.15625c0 0.023438 0.0039062 0.039062 0.015625 0.046875h0.046875 0.03125c0.019531-0.0078125 0.039062-0.019531 0.0625-0.03125v0.0625c-0.023438 0.011719-0.042969 0.015625-0.0625 0.015625h-0.046875c-0.042969 0-0.074219-0.0078125-0.09375-0.03125-0.023438-0.019531-0.03125-0.046875-0.03125-0.078125 0-0.039063 0.0078125-0.070313 0.03125-0.09375 0.019531-0.019531 0.050781-0.03125 0.09375-0.03125 0.03125 0 0.054687 0.011719 0.078125 0.03125 0.019531 0.023437 0.03125 0.054687 0.03125 0.09375zm-0.0625-0.03125c0-0.007813-0.007812-0.015625-0.015625-0.015625-0.011719-0.007812-0.023437-0.015625-0.03125-0.015625-0.011719 0-0.023437 0.007813-0.03125 0.015625-0.011719 0-0.015625 0.007812-0.015625 0.015625z"/>
  </symbol>
  <symbol id="j" overflow="visible">
   <path d="m0.14062-0.10938c-0.023437 0-0.039063 0.007813-0.046875 0.015625v0.015625 0.03125h0.03125c0.007812 0 0.019531-0.0039062 0.03125-0.015625 0.007812-0.0078125 0.015625-0.019531 0.015625-0.03125v-0.015625zm0.10938-0.015625v0.125h-0.078125v-0.03125c-0.011719 0.011719-0.023437 0.023438-0.03125 0.03125h-0.046875c-0.023438 0-0.042969-0.0039062-0.0625-0.015625-0.011719-0.0078125-0.015625-0.03125-0.015625-0.0625 0-0.019531 0.0078125-0.035156 0.03125-0.046875 0.019531-0.007812 0.046875-0.015625 0.078125-0.015625h0.046875c0-0.019531-0.007813-0.03125-0.015625-0.03125h-0.046875-0.046875-0.03125v-0.046875h0.046875c0.019531-0.007812 0.035156-0.015625 0.046875-0.015625 0.039062 0 0.070312 0.011719 0.09375 0.03125 0.019531 0.023437 0.03125 0.046875 0.03125 0.078125z"/>
  </symbol>
  <symbol id="b" overflow="visible">
   <path d="m0.10938-0.28125v0.0625h0.078125v0.046875h-0.078125v0.09375 0.03125h0.03125 0.03125v0.046875h-0.046875c-0.03125 0-0.058594-0.0039062-0.078125-0.015625-0.011719-0.0078125-0.015625-0.03125-0.015625-0.0625v-0.09375h-0.03125v-0.046875h0.03125v-0.0625z"/>
  </symbol>
  <symbol id="i" overflow="visible">
   <path d="m0.1875-0.1875v-0.125h0.0625v0.3125h-0.0625v-0.03125c-0.011719 0.011719-0.023438 0.023438-0.03125 0.03125h-0.046875c-0.023438 0-0.042969-0.0078125-0.0625-0.03125-0.023438-0.019531-0.03125-0.046875-0.03125-0.078125 0-0.039063 0.0078125-0.070313 0.03125-0.09375 0.019531-0.019531 0.039062-0.03125 0.0625-0.03125 0.019531 0 0.035156 0.007813 0.046875 0.015625 0.007812 0 0.019531 0.011719 0.03125 0.03125zm-0.046875 0.14062c0.007813 0 0.019531-0.0039062 0.03125-0.015625 0.007813-0.0078125 0.015625-0.023438 0.015625-0.046875 0-0.019531-0.007812-0.035156-0.015625-0.046875-0.011719-0.007812-0.023437-0.015625-0.03125-0.015625-0.023437 0-0.039063 0.007813-0.046875 0.015625v0.046875 0.046875c0.007812 0.011719 0.023438 0.015625 0.046875 0.015625z"/>
  </symbol>
  <symbol id="h" overflow="visible">
   <path d="m0.15625-0.046875c0.007812 0 0.019531-0.0039062 0.03125-0.015625 0.007812-0.0078125 0.015625-0.023438 0.015625-0.046875 0-0.019531-0.007813-0.035156-0.015625-0.046875-0.011719-0.007812-0.023438-0.015625-0.03125-0.015625-0.023438 0-0.039062 0.007813-0.046875 0.015625v0.046875 0.046875c0.007813 0.011719 0.023437 0.015625 0.046875 0.015625zm-0.046875-0.14062c0.007813-0.019531 0.019531-0.03125 0.03125-0.03125 0.007813-0.007812 0.019531-0.015625 0.03125-0.015625 0.03125 0 0.054687 0.011719 0.078125 0.03125 0.019531 0.023437 0.03125 0.054687 0.03125 0.09375 0 0.03125-0.011719 0.058594-0.03125 0.078125-0.023438 0.023438-0.046875 0.03125-0.078125 0.03125h-0.03125c-0.011719-0.0078125-0.023437-0.019531-0.03125-0.03125v0.03125h-0.078125v-0.3125h0.078125z"/>
  </symbol>
  <symbol id="g" overflow="visible">
   <path d="m0-0.21875h0.078125l0.0625 0.14062 0.046875-0.14062h0.078125l-0.09375 0.23438c-0.011719 0.03125-0.027344 0.050781-0.046875 0.0625-0.011719 0.0078125-0.027344 0.015625-0.046875 0.015625h-0.046875v-0.0625h0.03125 0.015625c0.0078125 0 0.019531-0.0078125 0.03125-0.015625v-0.015625z"/>
  </symbol>
  <symbol id="e" overflow="visible">
   <path d="m0.03125-0.29688h0.078125v0.29688h-0.078125z"/>
  </symbol>
  <symbol id="u" overflow="visible">
   <path d="m0-0.29688h0.078125l0.0625 0.10938 0.078125-0.10938h0.078125l-0.10938 0.17188v0.125h-0.078125v-0.125z"/>
  </symbol>
  <symbol id="t" overflow="visible">
   <path d="m0.03125-0.29688h0.078125v0.10938l0.10938-0.10938h0.09375l-0.14062 0.14062 0.15625 0.15625h-0.09375l-0.125-0.10938v0.10938h-0.078125z"/>
  </symbol>
  <symbol id="s" overflow="visible">
   <path d="m0.17188-0.25c-0.023437 0-0.039063 0.011719-0.046875 0.03125-0.011719 0.011719-0.015625 0.039062-0.015625 0.078125 0 0.023437 0.003906 0.042969 0.015625 0.0625 0.007812 0.023438 0.023438 0.03125 0.046875 0.03125 0.03125 0 0.050781-0.0078125 0.0625-0.03125 0.007813-0.019531 0.015625-0.039063 0.015625-0.0625 0-0.039063-0.007812-0.066406-0.015625-0.078125-0.011719-0.019531-0.03125-0.03125-0.0625-0.03125zm0-0.0625c0.050781 0 0.085937 0.015625 0.10938 0.046875 0.03125 0.03125 0.046875 0.074219 0.046875 0.125 0 0.042969-0.015625 0.078125-0.046875 0.10938-0.023438 0.023438-0.058594 0.03125-0.10938 0.03125-0.042969 0-0.078125-0.0078125-0.10938-0.03125-0.03125-0.03125-0.046875-0.066406-0.046875-0.10938 0-0.050781 0.015625-0.09375 0.046875-0.125s0.066406-0.046875 0.10938-0.046875z"/>
  </symbol>
  <symbol id="f" overflow="visible">
   <path d="m0.03125-0.29688h0.09375l0.10938 0.20312v-0.20312h0.078125v0.29688h-0.09375l-0.10938-0.20312v0.20312h-0.078125z"/>
  </symbol>
  <symbol id="r" overflow="visible">
   <path d="m0.17188-0.3125v0.046875h-0.03125c-0.011719 0-0.023437 0.007813-0.03125 0.015625v0.015625 0.015625h0.0625v0.046875h-0.0625v0.17188h-0.0625v-0.17188h-0.046875v-0.046875h0.046875v-0.015625c0-0.03125 0.0039062-0.050781 0.015625-0.0625 0.0078125-0.007813 0.03125-0.015625 0.0625-0.015625z"/>
  </symbol>
  <symbol id="d" overflow="visible">
   <path d="m0.14062-0.17188c-0.023437 0-0.039063 0.007813-0.046875 0.015625v0.046875 0.046875c0.007812 0.011719 0.023438 0.015625 0.046875 0.015625 0.019531 0 0.03125-0.0039062 0.03125-0.015625 0.007813-0.0078125 0.015625-0.023438 0.015625-0.046875 0-0.019531-0.007812-0.035156-0.015625-0.046875 0-0.007812-0.011719-0.015625-0.03125-0.015625zm0-0.0625c0.039063 0 0.070313 0.011719 0.09375 0.03125 0.019531 0.023437 0.03125 0.054687 0.03125 0.09375 0 0.03125-0.011719 0.058594-0.03125 0.078125-0.023437 0.023438-0.054687 0.03125-0.09375 0.03125-0.042969 0-0.074219-0.0078125-0.09375-0.03125-0.023438-0.019531-0.03125-0.046875-0.03125-0.078125 0-0.039063 0.0078125-0.070313 0.03125-0.09375 0.019531-0.019531 0.050781-0.03125 0.09375-0.03125z"/>
  </symbol>
  <symbol id="q" overflow="visible">
   <path d="m0.25-0.1875c0-0.007812 0.003906-0.019531 0.015625-0.03125 0.019531-0.007812 0.035156-0.015625 0.046875-0.015625 0.03125 0 0.050781 0.011719 0.0625 0.03125 0.007812 0.023437 0.015625 0.042969 0.015625 0.0625v0.14062h-0.0625v-0.10938-0.015625c0-0.019531-0.007813-0.03125-0.015625-0.03125 0-0.007812-0.007812-0.015625-0.015625-0.015625-0.011719 0-0.023437 0.007813-0.03125 0.015625-0.011719 0.011719-0.015625 0.027344-0.015625 0.046875v0.10938h-0.078125v-0.10938-0.046875c0-0.007812-0.011719-0.015625-0.03125-0.015625-0.011719 0-0.023437 0.007813-0.03125 0.015625v0.046875 0.10938h-0.078125v-0.21875h0.078125v0.03125c0.007813-0.019531 0.019531-0.03125 0.03125-0.03125 0.007813-0.007812 0.019531-0.015625 0.03125-0.015625 0.019531 0 0.035156 0.007813 0.046875 0.015625 0.007812 0.011719 0.019531 0.023438 0.03125 0.03125z"/>
  </symbol>
  <symbol id="p" overflow="visible">
   <path d="m0.26562-0.14062v0.14062h-0.078125v-0.10938-0.03125c0-0.007813-0.007812-0.015625-0.015625-0.015625v-0.015625h-0.015625c-0.011719 0-0.023438 0.007813-0.03125 0.015625-0.011719 0.011719-0.015625 0.027344-0.015625 0.046875v0.10938h-0.078125v-0.3125h0.078125v0.125c0.007813-0.019531 0.019531-0.03125 0.03125-0.03125 0.007813-0.007812 0.019531-0.015625 0.03125-0.015625 0.03125 0 0.050781 0.011719 0.0625 0.03125 0.019531 0.023437 0.03125 0.042969 0.03125 0.0625z"/>
  </symbol>
  <symbol id="o" overflow="visible">
   <path d="m0.03125-0.09375v-0.125h0.078125v0.015625 0.046875 0.03125 0.046875 0.015625 0.015625h0.03125c0.007813 0 0.019531-0.0039062 0.03125-0.015625 0.007813-0.0078125 0.015625-0.023438 0.015625-0.046875v-0.10938h0.0625v0.21875h-0.0625v-0.03125c-0.011719 0.011719-0.023438 0.023438-0.03125 0.03125h-0.046875c-0.023438 0-0.042969-0.0039062-0.0625-0.015625-0.011719-0.019531-0.015625-0.046875-0.015625-0.078125z"/>
  </symbol>
  <symbol id="n" overflow="visible">
   <path d="m0.26562-0.14062v0.14062h-0.078125v-0.10938-0.03125c0-0.007813-0.007812-0.015625-0.015625-0.015625v-0.015625h-0.015625c-0.011719 0-0.023438 0.007813-0.03125 0.015625-0.011719 0.011719-0.015625 0.027344-0.015625 0.046875v0.10938h-0.078125v-0.21875h0.078125v0.03125c0.007813-0.019531 0.019531-0.03125 0.03125-0.03125 0.007813-0.007812 0.019531-0.015625 0.03125-0.015625 0.03125 0 0.050781 0.011719 0.0625 0.03125 0.019531 0.023437 0.03125 0.042969 0.03125 0.0625z"/>
  </symbol>
  <symbol id="m" overflow="visible">
   <path d="m0.03125-0.29688h0.14062c0.03125 0 0.054687 0.011719 0.078125 0.03125 0.019531 0.011719 0.03125 0.03125 0.03125 0.0625s-0.011719 0.058594-0.03125 0.078125c-0.023438 0.011719-0.046875 0.015625-0.078125 0.015625h-0.0625v0.10938h-0.078125zm0.078125 0.046875v0.09375h0.046875 0.03125c0.007812-0.007812 0.015625-0.023438 0.015625-0.046875 0-0.007813-0.007813-0.019531-0.015625-0.03125-0.011719-0.007813-0.023438-0.015625-0.03125-0.015625z"/>
  </symbol>
  <symbol id="l" overflow="visible">
   <path d="m0.03125-0.21875h0.078125v0.21875c0 0.019531-0.011719 0.039062-0.03125 0.0625-0.011719 0.019531-0.03125 0.03125-0.0625 0.03125h-0.03125v-0.0625h0.015625 0.015625c0.0078125 0 0.015625-0.011719 0.015625-0.03125zm0-0.09375h0.078125v0.0625h-0.078125z"/>
  </symbol>
  <symbol id="k" overflow="visible">
   <path d="m0.21875-0.21875v0.0625c-0.011719-0.007812-0.023438-0.015625-0.03125-0.015625h-0.03125c-0.023438 0-0.039062 0.007813-0.046875 0.015625-0.011719 0.011719-0.015625 0.027344-0.015625 0.046875 0 0.023438 0.0039062 0.039062 0.015625 0.046875 0.007813 0.011719 0.023437 0.015625 0.046875 0.015625h0.03125c0.007812-0.0078125 0.019531-0.015625 0.03125-0.015625v0.0625h-0.03125-0.046875c-0.042969 0-0.074219-0.0078125-0.09375-0.03125-0.023438-0.019531-0.03125-0.046875-0.03125-0.078125 0-0.039063 0.0078125-0.070313 0.03125-0.09375 0.019531-0.019531 0.050781-0.03125 0.09375-0.03125 0.019531 0 0.035156 0.007813 0.046875 0.015625h0.03125z"/>
  </symbol>
 </defs>
 <g>
  <path d="m234.38 274.3c0.32813-0.49219 0.57422-1.0664 0.82031-1.6406-1.8047-4.7578-3.1992-9.6797-4.1836-14.684-1.1484-5.8242-1.7227-11.812-1.7227-17.719 0-24.691 9.8438-48.066 27.398-65.375 17.719-17.473 41.422-27.07 66.277-27.07 21.41 0 41.996 7.1367 58.73 20.426 16.488 13.125 28.629 31.418 32.812 52.25v0.082031c10.008-10.418 23.461-15.75 37.898-14.355 8.0391 0.82031 15.832 3.6094 22.559 8.0391 6.7266 4.3477 12.387 10.336 16.16 17.391 6.6445 12.305 7.1367 26.25 1.2305 38.965 0.082031 0.082031 0.082031 0.16406 0.16406 0.24609 18.211 1.0664 35.273 8.8594 47.902 21.984 12.551 13.125 19.605 30.434 19.605 48.559 0 18.867-7.5469 36.75-21 50.035-13.535 13.371-31.664 20.672-50.691 20.672h-276.6c-19.031 0-37.16-7.3828-50.691-20.672-13.453-13.207-21-31.09-21-50.035 0-18.867 7.5469-36.75 21-50.035 13.535-13.371 31.664-20.672 50.691-20.672 4.1836 0 8.3672 0.32812 12.469 1.0664 1.0664 0.16406 2.1328 0.32813 3.1992 0.57422 2.4609 0.41016 4.7578 1.1484 6.9727 1.9688z" fill-rule="evenodd"/>
  <use x="70" y="561.230469" xlink:href="#v"/>
  <use x="70.300781" y="561.230469" xlink:href="#c"/>
  <use x="70.503906" y="561.230469" xlink:href="#a"/>
  <use x="70.78125" y="561.230469" xlink:href="#j"/>
  <use x="71.058594" y="561.230469" xlink:href="#b"/>
  <use x="71.253906" y="561.230469" xlink:href="#a"/>
  <use x="71.53125" y="561.230469" xlink:href="#i"/>
  <use x="71.96875" y="561.230469" xlink:href="#h"/>
  <use x="72.261719" y="561.230469" xlink:href="#g"/>
  <use x="72.671875" y="561.230469" xlink:href="#e"/>
  <use x="72.824219" y="561.230469" xlink:href="#u"/>
  <use x="73.121094" y="561.230469" xlink:href="#e"/>
  <use x="73.273438" y="561.230469" xlink:href="#t"/>
  <use x="73.59375" y="561.230469" xlink:href="#s"/>
  <use x="73.941406" y="561.230469" xlink:href="#f"/>
  <use x="70" y="561.640625" xlink:href="#r"/>
  <use x="70.179688" y="561.640625" xlink:href="#c"/>
  <use x="70.378906" y="561.640625" xlink:href="#d"/>
  <use x="70.664062" y="561.640625" xlink:href="#q"/>
  <use x="71.234375" y="561.640625" xlink:href="#b"/>
  <use x="71.429688" y="561.640625" xlink:href="#p"/>
  <use x="71.71875" y="561.640625" xlink:href="#a"/>
  <use x="72.140625" y="561.640625" xlink:href="#f"/>
  <use x="72.484375" y="561.640625" xlink:href="#d"/>
  <use x="72.765625" y="561.640625" xlink:href="#o"/>
  <use x="73.058594" y="561.640625" xlink:href="#n"/>
  <use x="73.492188" y="561.640625" xlink:href="#m"/>
  <use x="73.792969" y="561.640625" xlink:href="#c"/>
  <use x="73.996094" y="561.640625" xlink:href="#d"/>
  <use x="74.277344" y="561.640625" xlink:href="#l"/>
  <use x="74.417969" y="561.640625" xlink:href="#a"/>
  <use x="74.695312" y="561.640625" xlink:href="#k"/>
  <use x="74.941406" y="561.640625" xlink:href="#b"/>
 </g>
</svg>
